<svg width="24" height="24" viewBox="0 0 24 24" fill="none" xmlns="http://www.w3.org/2000/svg">
<path fill-rule="evenodd" clip-rule="evenodd" d="M2.5 5C2.5 3.61929 3.61929 2.5 5 2.5H9C10.3807 2.5 11.5 3.61929 11.5 5V11C11.5 12.3807 10.3807 13.5 9 13.5H5C3.61929 13.5 2.5 12.3807 2.5 11V5ZM5 3.5C4.17157 3.5 3.5 4.17157 3.5 5V11C3.5 11.8284 4.17157 12.5 5 12.5H9C9.82843 12.5 10.5 11.8284 10.5 11V5C10.5 4.17157 9.82843 3.5 9 3.5H5ZM2.5 17C2.5 15.6193 3.61929 14.5 5 14.5H9C10.3807 14.5 11.5 15.6193 11.5 17V19C11.5 20.3807 10.3807 21.5 9 21.5H5C3.61929 21.5 2.5 20.3807 2.5 19V17ZM5 15.5C4.17157 15.5 3.5 16.1716 3.5 17V19C3.5 19.8284 4.17157 20.5 5 20.5H9C9.82843 20.5 10.5 19.8284 10.5 19V17C10.5 16.1716 9.82843 15.5 9 15.5H5ZM12.5 13C12.5 11.6193 13.6193 10.5 15 10.5H19C20.3807 10.5 21.5 11.6193 21.5 13V19C21.5 20.3807 20.3807 21.5 19 21.5H15C13.6193 21.5 12.5 20.3807 12.5 19V13ZM15 11.5C14.1716 11.5 13.5 12.1716 13.5 13V19C13.5 19.8284 14.1716 20.5 15 20.5H19C19.8284 20.5 20.5 19.8284 20.5 19V13C20.5 12.1716 19.8284 11.5 19 11.5H15ZM15 3.5C14.1716 3.5 13.5 4.17157 13.5 5V7C13.5 7.82843 14.1716 8.5 15 8.5H19C19.8284 8.5 20.5 7.82843 20.5 7V5C20.5 4.17157 19.8284 3.5 19 3.5H15ZM12.5 5C12.5 3.61929 13.6193 2.5 15 2.5H19C20.3807 2.5 21.5 3.61929 21.5 5V7C21.5 8.38071 20.3807 9.5 19 9.5H15C13.6193 9.5 12.5 8.38071 12.5 7V5Z" fill="#474747"/>
</svg>
