<svg width="24" height="24" viewBox="0 0 24 24" fill="none" xmlns="http://www.w3.org/2000/svg">
<path d="M19.7365 19.4458C19.5423 19.4458 19.3849 19.6032 19.3849 19.7973V23.1027C19.3849 23.2097 19.2978 23.2968 19.1908 23.2968H17.3009V16.3735C17.3009 16.1793 17.1435 16.0219 16.9494 16.0219C16.7552 16.0219 16.5978 16.1793 16.5978 16.3735V23.2968H12.7923L13.8958 22.0828C14.0164 21.9501 14.0733 21.7612 14.0479 21.5771C14.0474 21.5736 14.0469 21.57 14.0463 21.5664L12.9952 15.357L13.2784 14.9308C13.4349 15.042 13.5555 15.149 13.7817 15.149C14.0118 15.149 14.2269 15.0203 14.3327 14.8083V14.8082L15.4413 12.5864L17.9667 13.5644C18.0581 13.6036 19.3848 14.2011 19.3848 15.7787V18.1567C19.3848 18.3508 19.5422 18.5082 19.7364 18.5082C19.9305 18.5082 20.0879 18.3508 20.0879 18.1567V15.7787C20.0879 13.7001 18.3081 12.9445 18.2324 12.9133C18.2302 12.9124 18.2279 12.9115 18.2257 12.9106L14.0225 11.2829V10.2971C14.6901 9.77789 15.153 9.00825 15.2692 8.13019C15.602 8.10675 15.9109 7.98244 16.1631 7.76555C16.4925 7.48228 16.6815 7.07002 16.6815 6.63464C16.6815 6.27333 16.5512 5.92833 16.3189 5.6595V4.35717C16.3188 1.95464 14.3642 0 11.9617 0C9.55915 0 7.60456 1.95464 7.60456 4.35717V5.69362C7.36976 5.95973 7.24207 6.2873 7.24207 6.63459C7.24207 7.07011 7.43098 7.48233 7.76046 7.76564C8.01251 7.98244 8.32118 8.10661 8.65395 8.13009C8.77109 9.02461 9.24748 9.82294 9.97193 10.3491V11.2829L5.77329 12.9106C5.77109 12.9114 5.76888 12.9123 5.76668 12.9132C5.69088 12.9444 3.91113 13.7 3.91113 15.7786V23.1026C3.91113 23.5973 4.31365 23.9999 4.80841 23.9999H8.15796C8.35212 23.9999 8.50952 23.8425 8.50952 23.6483C8.50952 23.4541 8.35212 23.2967 8.15796 23.2967H7.40154V16.3735C7.40154 16.1793 7.24413 16.0219 7.04998 16.0219C6.85582 16.0219 6.69841 16.1793 6.69841 16.3735V23.2968H4.80846C4.70145 23.2968 4.61435 23.2097 4.61435 23.1027V15.7786C4.61435 14.1957 5.94996 13.5996 6.03199 13.5645L8.55546 12.5863L9.66415 14.8082C9.77023 15.0207 9.98562 15.149 10.2152 15.149C10.4403 15.149 10.5597 15.0436 10.7186 14.9308L11.0017 15.357L9.95074 21.5665C9.95013 21.57 9.94962 21.5735 9.9491 21.5771C9.9237 21.761 9.98056 21.9501 10.1012 22.0828L11.2047 23.2969H9.79873C9.60457 23.2969 9.44716 23.4543 9.44716 23.6484C9.44716 23.8426 9.60457 24 9.79873 24H19.1908C19.6856 24 20.0881 23.5974 20.0881 23.1027V19.7974C20.088 19.6032 19.9306 19.4458 19.7365 19.4458ZM14.7828 12.3314L13.7492 14.4028C13.7235 14.3845 13.1758 13.9954 12.5062 13.5199C12.7968 13.1613 12.4569 13.5808 13.7829 11.9441L14.7828 12.3314ZM12.7047 14.5234L12.4367 14.9269H11.56L11.2919 14.5234L11.9983 14.0217L12.7047 14.5234ZM10.675 11.3963V10.7384C11.1021 10.9105 11.5586 10.9904 12.0044 10.9904C12.4653 10.9904 12.9173 10.8921 13.3193 10.7163V11.3992L11.9983 13.0297L10.675 11.3963ZM15.9784 6.63464C15.9783 6.86494 15.8786 7.08286 15.7046 7.23244C15.5897 7.33134 15.4508 7.39458 15.2987 7.41933V5.85009C15.7027 5.91572 15.9784 6.25087 15.9784 6.63464ZM8.62488 7.41933C8.21623 7.353 7.9452 7.01512 7.9452 6.63459C7.9452 6.25875 8.25677 5.95284 8.62488 5.86777V7.41933ZM8.64377 5.15138C8.53179 5.16422 8.40345 5.19455 8.30777 5.22708V4.35717C8.30777 2.34234 9.9469 0.703172 11.9617 0.703172C13.9766 0.703172 15.6157 2.34234 15.6157 4.35717V5.20294C15.5135 5.17186 15.4075 5.15133 15.2987 5.14167C15.2987 4.80244 15.3017 4.86787 14.1919 3.67477C13.9878 3.45548 13.6502 3.40955 13.3933 3.57741C12.1684 4.37752 10.6743 4.77947 9.29571 4.68047C8.99332 4.65783 8.71788 4.857 8.64377 5.15138ZM9.32805 7.69613V5.50275V5.3872C10.8456 5.47608 12.4367 5.02523 13.7221 4.20206C14.231 4.74853 14.5067 5.03517 14.5955 5.1442C14.5955 5.42002 14.5955 7.38037 14.5955 7.69608C14.5955 9.12328 13.4318 10.2871 12.0044 10.2871C10.4016 10.2872 9.32805 9.04378 9.32805 7.69613ZM10.2475 14.4028L9.21396 12.3314L10.2121 11.9448L11.489 13.521C10.8396 13.9821 10.3064 14.3609 10.2475 14.4028ZM10.6509 21.6423L11.6685 15.63H12.3281L13.3457 21.6423L11.9983 23.1246L10.6509 21.6423Z" fill="white"/>
</svg>
