<svg width="23" height="22" viewBox="0 0 23 22" fill="none" xmlns="http://www.w3.org/2000/svg">
<path d="M20.4883 9.20475H19.7499V9.16671H11.4999V12.8334H16.6805C15.9247 14.9678 13.8938 16.5 11.4999 16.5C8.46254 16.5 5.99992 14.0374 5.99992 11C5.99992 7.96267 8.46254 5.50004 11.4999 5.50004C12.902 5.50004 14.1775 6.02896 15.1487 6.89292L17.7415 4.30012C16.1043 2.77433 13.9144 1.83337 11.4999 1.83337C6.43763 1.83337 2.33325 5.93775 2.33325 11C2.33325 16.0623 6.43763 20.1667 11.4999 20.1667C16.5622 20.1667 20.6666 16.0623 20.6666 11C20.6666 10.3854 20.6033 9.78546 20.4883 9.20475Z" fill="#FFC107"/>
<path d="M3.39014 6.73342L6.40184 8.94212C7.21676 6.92454 9.19035 5.50004 11.4999 5.50004C12.9019 5.50004 14.1775 6.02896 15.1487 6.89292L17.7415 4.30012C16.1043 2.77433 13.9144 1.83337 11.4999 1.83337C7.97897 1.83337 4.92555 3.82117 3.39014 6.73342Z" fill="#FF3D00"/>
<path d="M11.5 20.1667C13.8677 20.1667 16.0191 19.2606 17.6458 17.7871L14.8087 15.3863C13.8574 16.1097 12.6951 16.501 11.5 16.5001C9.11573 16.5001 7.09127 14.9798 6.32861 12.8582L3.33936 15.1613C4.85644 18.1299 7.93736 20.1667 11.5 20.1667Z" fill="#4CAF50"/>
<path d="M20.4884 9.20467H19.75V9.16663H11.5V12.8333H16.6805C16.319 13.8491 15.6678 14.7368 14.8073 15.3867L14.8087 15.3857L17.6458 17.7865C17.445 17.9689 20.6667 15.5833 20.6667 11C20.6667 10.3853 20.6034 9.78538 20.4884 9.20467Z" fill="#1976D2"/>
</svg>
