<svg width="231" height="46" viewBox="0 0 231 46" fill="none" xmlns="http://www.w3.org/2000/svg">
<ellipse cx="22.9905" cy="25" rx="22.9167" ry="21" fill="#3AAFA9"/>
<path d="M4.3637 34.8999H7.67682V24.4065C7.67682 22.1128 9.28351 20.5172 11.1672 20.5172C13.0066 20.5172 14.2809 21.7361 14.2809 23.5866V34.8999H17.5829V24.0519C17.5829 22.002 18.835 20.5172 20.9958 20.5172C22.7465 20.5172 24.187 21.4923 24.187 23.7971V34.8999H27.5001V23.4868C27.5001 19.5975 25.3283 17.6584 22.2479 17.6584C19.799 17.6584 17.9597 18.833 17.1397 20.6502H16.9624C16.22 18.7886 14.6576 17.6584 12.3861 17.6584C10.1367 17.6584 8.46354 18.7776 7.75438 20.6502H7.54385V17.88H4.3637V34.8999Z" fill="white"/>
<path d="M26.8458 34.7H47.5891V30.2394H32.0274V0.356952H26.8458V34.7Z" fill="white"/>
<path d="M58.2936 33.8999H55.1413V17.1105H58.1566V19.4405H58.2936C58.7733 18.6181 59.5043 17.9328 60.4865 17.3846C61.4916 16.8364 62.4852 16.5623 63.4675 16.5623C64.701 16.5623 65.786 16.8478 66.7226 17.4189C67.6591 17.99 68.3444 18.778 68.7784 19.7831C70.1718 17.6359 72.102 16.5623 74.569 16.5623C76.5107 16.5623 78.0069 17.1562 79.0576 18.344C80.1084 19.5318 80.6338 21.2222 80.6338 23.4151V33.8999H77.4815V23.8948C77.4815 22.3186 77.1959 21.1879 76.6249 20.5027C76.0538 19.7945 75.0944 19.4405 73.7467 19.4405C72.536 19.4405 71.5195 19.9544 70.6972 20.9824C69.8749 22.0103 69.4637 23.2209 69.4637 24.6143V33.8999H66.3114V23.8948C66.3114 22.3186 66.0259 21.1879 65.4548 20.5027C64.8837 19.7945 63.9243 19.4405 62.5766 19.4405C61.366 19.4405 60.3495 19.9544 59.5271 20.9824C58.7048 22.0103 58.2936 23.2209 58.2936 24.6143V33.8999ZM115.707 33.8999H101.933V9.36683H105.085V30.8847H115.707V33.8999Z" fill="#3AAFA9"/>
<path d="M99.327 17.1105L88.8079 41.3009H85.5528L89.4589 32.8377L82.5376 17.1105H85.964L90.9665 29.1715H91.0351L95.9006 17.1105H99.327ZM125.988 34.4481C123.521 34.4481 121.488 33.6029 119.889 31.9126C118.29 30.2222 117.49 28.0864 117.49 25.5052C117.49 22.9468 118.267 20.8225 119.82 19.1321C121.373 17.4189 123.361 16.5623 125.782 16.5623C128.272 16.5623 130.248 17.3732 131.71 18.995C133.194 20.594 133.937 22.844 133.937 25.7451L133.903 26.0877H120.711C120.757 27.7324 121.305 29.0572 122.356 30.0623C123.406 31.0674 124.663 31.5699 126.125 31.5699C128.135 31.5699 129.711 30.5649 130.853 28.5547L133.663 29.9253C132.909 31.3415 131.858 32.4494 130.51 33.2489C129.186 34.0484 127.678 34.4481 125.988 34.4481ZM120.951 23.4836H130.579C130.488 22.3186 130.008 21.3593 129.14 20.6054C128.295 19.8288 127.153 19.4405 125.713 19.4405C124.526 19.4405 123.498 19.806 122.63 20.5369C121.785 21.2679 121.225 22.2501 120.951 23.4836ZM139.283 28.7603C139.283 29.5826 139.625 30.2679 140.311 30.8161C141.019 31.3644 141.841 31.6385 142.778 31.6385C144.102 31.6385 145.279 31.1474 146.307 30.1651C147.357 29.1829 147.883 28.0293 147.883 26.7044C146.901 25.9278 145.53 25.5395 143.771 25.5395C142.492 25.5395 141.418 25.8478 140.55 26.4646C139.705 27.0814 139.283 27.8466 139.283 28.7603ZM143.36 16.5623C145.69 16.5623 147.529 17.1905 148.877 18.4468C150.224 19.6803 150.898 21.3821 150.898 23.5522V33.8999H147.883V31.5699H147.746C146.444 33.4887 144.708 34.4481 142.538 34.4481C140.687 34.4481 139.134 33.8999 137.878 32.8035C136.644 31.707 136.028 30.3364 136.028 28.6918C136.028 26.9557 136.679 25.5737 137.981 24.5458C139.305 23.5179 141.064 23.0039 143.257 23.0039C145.13 23.0039 146.672 23.3466 147.883 24.0319V23.3123C147.883 22.2159 147.449 21.2907 146.581 20.5369C145.713 19.7603 144.696 19.3719 143.531 19.3719C141.772 19.3719 140.379 20.1143 139.351 21.5991L136.576 19.8516C138.106 17.6587 140.368 16.5623 143.36 16.5623ZM157.606 33.8999H154.454V17.1105H157.469V19.8516H157.606C157.926 18.9608 158.577 18.207 159.559 17.5902C160.564 16.9506 161.546 16.6308 162.506 16.6308C163.419 16.6308 164.196 16.7679 164.836 17.042L163.876 20.0915C163.488 19.9316 162.871 19.8516 162.026 19.8516C160.838 19.8516 159.799 20.3313 158.908 21.2907C158.04 22.2501 157.606 23.3694 157.606 24.6486V33.8999ZM166.901 17.1105H169.916V19.4405H170.053C170.533 18.6181 171.264 17.9328 172.246 17.3846C173.251 16.8364 174.291 16.5623 175.364 16.5623C177.42 16.5623 178.996 17.1562 180.093 18.344C181.212 19.509 181.772 21.1765 181.772 23.3466V33.8999H178.619V23.5522C178.551 20.811 177.169 19.4405 174.473 19.4405C173.217 19.4405 172.166 19.9544 171.321 20.9824C170.476 21.9874 170.053 23.1981 170.053 24.6143V33.8999H166.901V17.1105ZM189.549 11.3199C189.549 11.9366 189.332 12.462 188.898 12.896C188.464 13.33 187.939 13.547 187.322 13.547C186.705 13.547 186.18 13.33 185.746 12.896C185.312 12.462 185.095 11.9366 185.095 11.3199C185.095 10.7031 185.312 10.1777 185.746 9.74374C186.18 9.30973 186.705 9.09272 187.322 9.09272C187.939 9.09272 188.464 9.30973 188.898 9.74374C189.332 10.1777 189.549 10.7031 189.549 11.3199ZM188.898 17.1105V33.8999H185.746V17.1105H188.898ZM193.001 17.1105H196.016V19.4405H196.153C196.633 18.6181 197.364 17.9328 198.346 17.3846C199.351 16.8364 200.39 16.5623 201.464 16.5623C203.52 16.5623 205.096 17.1562 206.192 18.344C207.312 19.509 207.871 21.1765 207.871 23.3466V33.8999H204.719V23.5522C204.65 20.811 203.268 19.4405 200.573 19.4405C199.317 19.4405 198.266 19.9544 197.421 20.9824C196.576 21.9874 196.153 23.1981 196.153 24.6143V33.8999H193.001V17.1105ZM218.942 31.5699C220.496 31.5699 221.763 31.0103 222.746 29.891C223.773 28.7717 224.287 27.3098 224.287 25.5052C224.287 23.7463 223.773 22.2958 222.746 21.1537C221.74 20.0115 220.473 19.4405 218.942 19.4405C217.435 19.4405 216.167 20.0115 215.139 21.1537C214.111 22.2958 213.597 23.7463 213.597 25.5052C213.597 27.2869 214.111 28.7375 215.139 29.8567C216.167 30.9989 217.435 31.5699 218.942 31.5699ZM218.839 41.8492C217.903 41.8492 217.023 41.7235 216.201 41.4723C215.379 41.2438 214.625 40.9126 213.94 40.4786C213.277 40.0446 212.706 39.5306 212.227 38.9367C211.747 38.3428 211.381 37.6804 211.13 36.9494L214.111 35.7159C214.454 36.6981 215.048 37.4862 215.893 38.0801C216.738 38.674 217.72 38.971 218.839 38.971C220.553 38.971 221.889 38.457 222.848 37.4291C223.808 36.4012 224.287 34.9849 224.287 33.1804V31.5699H224.15C223.556 32.4608 222.746 33.1689 221.718 33.6943C220.713 34.1969 219.616 34.4481 218.428 34.4481C216.235 34.4481 214.351 33.5915 212.775 31.8783C211.221 30.1194 210.445 27.9951 210.445 25.5052C210.445 23.0154 211.221 20.9024 212.775 19.1664C214.351 17.4303 216.235 16.5623 218.428 16.5623C219.616 16.5623 220.713 16.825 221.718 17.3504C222.746 17.8529 223.556 18.5496 224.15 19.4405H224.287V17.1105H227.303V33.1804C227.303 35.8758 226.537 37.9887 225.007 39.5192C223.454 41.0725 221.398 41.8492 218.839 41.8492Z" fill="black"/>
</svg>
