<svg width="237" height="47" viewBox="0 0 237 47" fill="none" xmlns="http://www.w3.org/2000/svg">
<ellipse cx="23.5376" cy="25.5" rx="23.4623" ry="21.5" fill="#3AAFA9"/>
<path d="M4.46765 36.0167H7.85965V25.2735C7.85965 22.9252 9.5046 21.2916 11.4332 21.2916C13.3163 21.2916 14.621 22.5395 14.621 24.434V36.0167H18.0016V24.9105C18.0016 22.8118 19.2835 21.2916 21.4957 21.2916C23.2881 21.2916 24.7629 22.2899 24.7629 24.6496V36.0167H28.1549V24.3319C28.1549 20.35 25.9314 18.3647 22.7776 18.3647C20.2705 18.3647 18.3873 19.5672 17.5478 21.4277H17.3663C16.6062 19.5219 15.0067 18.3647 12.681 18.3647C10.3781 18.3647 8.6651 19.5105 7.93906 21.4277H7.72351V18.5916H4.46765V36.0167Z" fill="white"/>
<path d="M27.485 35.55H48.7222V30.9833H32.79V0.389359H27.485V35.55Z" fill="white"/>
<path d="M59.6817 35.0167H56.4543V17.8276H59.5413V20.213H59.6817C60.1728 19.3711 60.9211 18.6695 61.9268 18.1082C62.9558 17.5469 63.9731 17.2663 64.9787 17.2663C66.2416 17.2663 67.3525 17.5586 68.3113 18.1433C69.2702 18.728 69.9717 19.5348 70.4161 20.5638C71.8427 18.3655 73.8188 17.2663 76.3446 17.2663C78.3325 17.2663 79.8643 17.8744 80.9401 19.0905C82.0158 20.3066 82.5537 22.0372 82.5537 24.2823V35.0167H79.3264V24.7734C79.3264 23.1597 79.034 22.0021 78.4494 21.3005C77.8647 20.5755 76.8825 20.213 75.5027 20.213C74.2632 20.213 73.2225 20.7392 72.3806 21.7916C71.5386 22.844 71.1177 24.0835 71.1177 25.5101V35.0167H67.8903V24.7734C67.8903 23.1597 67.598 22.0021 67.0133 21.3005C66.4287 20.5755 65.4464 20.213 64.0666 20.213C62.8271 20.213 61.7864 20.7392 60.9445 21.7916C60.1026 22.844 59.6817 24.0835 59.6817 25.5101V35.0167ZM118.462 35.0167H104.36V9.89953H107.587V31.9297H118.462V35.0167Z" fill="#3AAFA9"/>
<path d="M101.692 17.8276L90.9225 42.594H87.5899L91.589 33.9292L84.5029 17.8276H88.0108L93.1325 30.1757H93.2027L98.184 17.8276H101.692ZM128.987 35.578C126.462 35.578 124.38 34.7127 122.743 32.9821C121.106 31.2515 120.288 29.0648 120.288 26.4222C120.288 23.8029 121.083 21.6279 122.673 19.8973C124.263 18.1433 126.298 17.2663 128.777 17.2663C131.326 17.2663 133.349 18.0965 134.846 19.757C136.366 21.394 137.126 23.6976 137.126 26.6677L137.091 27.0185H123.585C123.632 28.7023 124.193 30.0588 125.269 31.0878C126.345 32.1168 127.631 32.6313 129.128 32.6313C131.186 32.6313 132.799 31.6023 133.969 29.5443L136.845 30.9475C136.074 32.3974 134.998 33.5317 133.618 34.3502C132.262 35.1687 130.718 35.578 128.987 35.578ZM123.831 24.3524H133.688C133.595 23.1597 133.103 22.1775 132.215 21.4057C131.349 20.6106 130.18 20.213 128.707 20.213C127.491 20.213 126.438 20.5872 125.55 21.3356C124.684 22.0839 124.111 23.0896 123.831 24.3524ZM142.599 29.7547C142.599 30.5967 142.95 31.2983 143.651 31.8595C144.376 32.4208 145.218 32.7015 146.177 32.7015C147.534 32.7015 148.738 32.1986 149.79 31.193C150.866 30.1874 151.404 29.0064 151.404 27.65C150.398 26.8548 148.995 26.4572 147.194 26.4572C145.885 26.4572 144.786 26.773 143.897 27.4044C143.032 28.0358 142.599 28.8193 142.599 29.7547ZM146.773 17.2663C149.159 17.2663 151.042 17.9094 152.421 19.1957C153.801 20.4586 154.491 22.2009 154.491 24.4226V35.0167H151.404V32.6313H151.264C149.931 34.5958 148.153 35.578 145.932 35.578C144.037 35.578 142.447 35.0167 141.161 33.8942C139.898 32.7716 139.266 31.3684 139.266 29.6846C139.266 27.9072 139.933 26.4923 141.266 25.4399C142.622 24.3875 144.423 23.8613 146.668 23.8613C148.586 23.8613 150.165 24.2121 151.404 24.9137V24.177C151.404 23.0545 150.96 22.1073 150.071 21.3356C149.182 20.5404 148.142 20.1429 146.949 20.1429C145.148 20.1429 143.722 20.9029 142.669 22.423L139.828 20.634C141.395 18.3889 143.71 17.2663 146.773 17.2663ZM161.358 35.0167H158.131V17.8276H161.218V20.634H161.358C161.686 19.7219 162.352 18.9501 163.358 18.3187C164.387 17.6639 165.393 17.3365 166.375 17.3365C167.31 17.3365 168.105 17.4768 168.76 17.7574L167.778 20.8795C167.381 20.7158 166.749 20.634 165.884 20.634C164.668 20.634 163.604 21.1251 162.692 22.1073C161.803 23.0896 161.358 24.2355 161.358 25.5452V35.0167ZM170.875 17.8276H173.962V20.213H174.102C174.593 19.3711 175.342 18.6695 176.347 18.1082C177.376 17.5469 178.441 17.2663 179.54 17.2663C181.645 17.2663 183.258 17.8744 184.381 19.0905C185.527 20.2832 186.1 21.9904 186.1 24.2121V35.0167H182.872V24.4226C182.802 21.6162 181.387 20.213 178.628 20.213C177.341 20.213 176.266 20.7392 175.4 21.7916C174.535 22.8206 174.102 24.0601 174.102 25.5101V35.0167H170.875V17.8276ZM194.063 11.8991C194.063 12.5305 193.84 13.0684 193.396 13.5128C192.952 13.9571 192.414 14.1793 191.782 14.1793C191.151 14.1793 190.613 13.9571 190.169 13.5128C189.724 13.0684 189.502 12.5305 189.502 11.8991C189.502 11.2676 189.724 10.7298 190.169 10.2854C190.613 9.84107 191.151 9.61889 191.782 9.61889C192.414 9.61889 192.952 9.84107 193.396 10.2854C193.84 10.7298 194.063 11.2676 194.063 11.8991ZM193.396 17.8276V35.0167H190.169V17.8276H193.396ZM197.596 17.8276H200.683V20.213H200.823C201.314 19.3711 202.063 18.6695 203.068 18.1082C204.097 17.5469 205.162 17.2663 206.261 17.2663C208.365 17.2663 209.979 17.8744 211.102 19.0905C212.248 20.2832 212.821 21.9904 212.821 24.2121V35.0167H209.593V24.4226C209.523 21.6162 208.108 20.213 205.349 20.213C204.062 20.213 202.987 20.7392 202.121 21.7916C201.256 22.8206 200.823 24.0601 200.823 25.5101V35.0167H197.596V17.8276ZM224.155 32.6313C225.746 32.6313 227.044 32.0583 228.049 30.9124C229.102 29.7664 229.628 28.2697 229.628 26.4222C229.628 24.6214 229.102 23.1363 228.049 21.967C227.02 20.7977 225.722 20.213 224.155 20.213C222.612 20.213 221.314 20.7977 220.261 21.967C219.209 23.1363 218.683 24.6214 218.683 26.4222C218.683 28.2463 219.209 29.7314 220.261 30.8773C221.314 32.0466 222.612 32.6313 224.155 32.6313ZM224.05 43.1553C223.091 43.1553 222.191 43.0266 221.349 42.7694C220.507 42.5355 219.735 42.1964 219.034 41.7521C218.355 41.3077 217.771 40.7815 217.28 40.1735C216.789 39.5654 216.414 38.8872 216.157 38.1388L219.209 36.876C219.56 37.8816 220.168 38.6884 221.033 39.2965C221.898 39.9045 222.904 40.2085 224.05 40.2085C225.804 40.2085 227.172 39.6823 228.154 38.63C229.137 37.5776 229.628 36.1276 229.628 34.28V32.6313H229.487C228.879 33.5434 228.049 34.2684 226.997 34.8062C225.968 35.3207 224.845 35.578 223.629 35.578C221.384 35.578 219.455 34.701 217.841 32.947C216.251 31.1462 215.455 28.9713 215.455 26.4222C215.455 23.873 216.251 21.7098 217.841 19.9324C219.455 18.155 221.384 17.2663 223.629 17.2663C224.845 17.2663 225.968 17.5353 226.997 18.0731C228.049 18.5876 228.879 19.3009 229.487 20.213H229.628V17.8276H232.715V34.28C232.715 37.0397 231.931 39.2029 230.364 40.7698C228.774 42.3601 226.669 43.1553 224.05 43.1553Z" fill="white"/>
</svg>
