<svg width="24" height="24" viewBox="0 0 24 24" fill="none" xmlns="http://www.w3.org/2000/svg">
<g clip-path="url(#clip0)">
<path d="M17.0266 17.2781H6.97559C6.78138 17.2781 6.62402 17.4355 6.62402 17.6296C6.62402 17.8238 6.78138 17.9812 6.97559 17.9812H17.0266C17.2208 17.9812 17.3782 17.8238 17.3782 17.6296C17.3782 17.4355 17.2208 17.2781 17.0266 17.2781Z" fill="white"/>
<path d="M17.3782 19.1526C17.3782 18.9584 17.2208 18.801 17.0266 18.801H6.97559C6.78138 18.801 6.62402 18.9584 6.62402 19.1526C6.62402 19.3467 6.78138 19.5042 6.97559 19.5042H17.0266C17.2208 19.5042 17.3782 19.3467 17.3782 19.1526Z" fill="white"/>
<path d="M8.44531 20.3239C8.25111 20.3239 8.09375 20.4813 8.09375 20.6754C8.09375 20.8696 8.25111 21.027 8.44531 21.027H15.5557C15.7499 21.027 15.9073 20.8696 15.9073 20.6754C15.9073 20.4813 15.7499 20.3239 15.5557 20.3239H8.44531Z" fill="white"/>
<path d="M17.4052 8.41217L19.5175 7.64131C19.7087 7.57152 19.8323 7.39485 19.8323 7.19127C19.8323 6.98769 19.7087 6.81111 19.5175 6.74132L12.5514 4.19901C12.1959 4.06926 11.8043 4.06922 11.4488 4.19901L4.48283 6.74127C4.29158 6.81102 4.16797 6.98764 4.16797 7.19127C4.16797 7.39489 4.29153 7.57152 4.48278 7.64131L6.59505 8.41217V12.5676C6.59505 12.8417 6.71594 13.1018 6.90119 13.2766C7.08471 13.4497 7.28814 13.6126 7.50831 13.7649C7.50827 13.7649 7.50817 13.765 7.50808 13.7651C7.2716 13.9972 7.13599 14.3191 7.13599 14.6483V14.8849C7.13599 14.9892 7.16871 15.0885 7.22575 15.1708L6.88408 15.9584C6.80683 16.1365 6.88858 16.3436 7.06671 16.4208C7.24464 16.4981 7.45178 16.4164 7.52913 16.2382L7.85106 15.496C7.89705 15.5108 7.9435 15.5235 7.99038 15.5339V16.3253C7.99038 16.5195 8.14773 16.6769 8.34194 16.6769C8.53614 16.6769 8.6935 16.5195 8.6935 16.3253V15.5339C8.74037 15.5234 8.78683 15.5108 8.83276 15.496L9.15475 16.2382C9.23214 16.4166 9.43932 16.498 9.61717 16.4208C9.79534 16.3436 9.87709 16.1365 9.79979 15.9584L9.45812 15.1708C9.51517 15.0885 9.54793 14.9892 9.54793 14.8848V14.7034C10.3187 14.9224 11.1547 15.0373 12 15.0373C13.795 15.0373 15.8064 14.4957 17.099 13.2765C17.2848 13.1012 17.4051 12.839 17.4051 12.5675C17.4052 12.0975 17.4052 8.88851 17.4052 8.41217ZM11.6899 4.85953C11.8899 4.7865 12.1103 4.7865 12.3103 4.85953L18.6996 7.19131C18.5808 7.23467 12.4201 9.48302 12.3104 9.52306C12.1102 9.59609 11.8899 9.59604 11.6899 9.52306L9.23425 8.62686L11.2658 7.62341L11.4489 7.6902C11.6266 7.75508 11.8133 7.78752 12.0001 7.78752C12.1869 7.78752 12.3737 7.75508 12.5514 7.6902L12.8757 7.57189C13.0734 7.4998 13.2062 7.31 13.2062 7.09958V6.8406C13.2062 6.18796 12.6755 5.64702 12.0231 5.63479C11.7047 5.62898 11.3991 5.75127 11.1663 5.97979C10.9298 6.21191 10.7942 6.5338 10.7942 6.863V7.07225C8.22967 8.3389 8.39336 8.25476 8.33031 8.297L5.3007 7.19131L11.6899 4.85953ZM11.4972 6.95938V6.86296C11.4972 6.72135 11.556 6.58232 11.6587 6.48154C11.7556 6.38643 11.8789 6.33594 12.0098 6.33772C12.2817 6.34283 12.503 6.5684 12.503 6.84055V6.95933L12.3103 7.02964C12.1102 7.10267 11.8899 7.10263 11.6899 7.02964L11.4972 6.95938ZM7.99042 11.5725C7.76875 11.4256 7.56522 11.2662 7.38363 11.0949C7.3293 11.0437 7.29817 10.9717 7.29817 10.8974V8.66886L7.99094 8.9217C7.99014 8.96693 7.99042 8.61743 7.99042 11.5725ZM7.83906 14.7448C7.83906 14.6447 7.82064 14.4435 8.00055 14.2669C8.10339 14.166 8.2315 14.121 8.35164 14.1231C8.71258 14.13 8.84481 14.3851 8.84481 14.7447C8.42242 14.8989 8.34681 14.9301 7.83906 14.7448ZM7.99042 13.2425C7.7891 13.1091 7.60436 12.966 7.43782 12.8146C7.38536 12.7668 7.29813 12.7026 7.29813 12.5676V11.9425C7.51146 12.1051 7.74377 12.2551 7.99042 12.3928V13.2425ZM9.29223 13.8845C9.14218 13.6916 8.93523 13.5456 8.69354 13.4721V12.7333C9.43454 13.0422 10.2703 13.2485 11.1479 13.3283C11.3416 13.3457 11.5123 13.2034 11.5298 13.01C11.5475 12.8167 11.405 12.6457 11.2116 12.6281C10.2933 12.5446 9.42915 12.3142 8.6935 11.9668V9.17806L11.4488 10.1836C11.6222 10.2469 11.811 10.2809 12 10.2809C12.1936 10.2809 12.3826 10.2452 12.5513 10.1836H12.5513L16.702 8.66886V10.8974C16.702 10.9717 16.6709 11.0437 16.6166 11.0949C15.7329 11.9284 14.3376 12.4873 12.7885 12.6281C12.5952 12.6457 12.4527 12.8167 12.4703 13.0101C12.4878 13.2034 12.6587 13.346 12.8522 13.3284C14.3431 13.1928 15.7151 12.6949 16.702 11.9425V12.5676C16.702 12.6449 16.6676 12.717 16.6166 12.7651C15.4487 13.8667 13.6104 14.3343 12.0001 14.3343C11.051 14.3342 10.1174 14.1789 9.29223 13.8845Z" fill="white"/>
<path d="M4.1937 24H19.8068C20.5802 24 21.2094 23.3708 21.2094 22.5974V13.0078C21.2094 12.8136 21.0521 12.6562 20.8579 12.6562C20.6637 12.6562 20.5063 12.8136 20.5063 13.0078V22.5974C20.5063 22.9831 20.1925 23.2969 19.8068 23.2969H4.1937C3.80796 23.2969 3.49414 22.9831 3.49414 22.5974V2.87413H20.5063V11.3671C20.5063 11.5613 20.6637 11.7187 20.8579 11.7187C21.0521 11.7187 21.2094 11.5613 21.2094 11.3671C21.2094 11.0309 21.2094 1.88132 21.2094 1.40264C21.2094 0.629294 20.5803 0 19.8068 0C19.3849 0 4.33338 0 4.1937 0C3.42026 0 2.79102 0.629201 2.79102 1.40264V22.5973C2.79102 23.3708 3.42026 24 4.1937 24ZM20.5063 1.40264V2.17101H6.3026V0.703122H19.8068C20.1924 0.703122 20.5063 1.01681 20.5063 1.40264ZM3.49414 1.40264C3.49414 1.08923 3.70128 0.823309 3.9859 0.734622C4.05157 0.714138 4.12137 0.703122 4.1937 0.703122H5.59947V2.17101H3.49414V1.40264Z" fill="white"/>
</g>
<defs>
<clipPath id="clip0">
<rect width="24" height="24" fill="white"/>
</clipPath>
</defs>
</svg>
