<svg width="18" height="22" viewBox="0 0 18 22" fill="none" xmlns="http://www.w3.org/2000/svg">
<path d="M7.93179 20.2774V18.3351C3.61222 17.8712 0.307311 14.2184 0.27832 9.86986C0.27832 9.31904 0.713176 8.88419 1.26399 8.91318C1.81481 8.91318 2.24967 9.34803 2.24967 9.86986C2.30765 13.5516 5.32265 16.4797 9.00444 16.4507C12.5992 16.3927 15.5273 13.4937 15.5853 9.86986C15.5853 9.31904 16.0201 8.88419 16.5709 8.88419C17.1218 8.88419 17.5566 9.31904 17.5566 9.86986C17.5276 14.2184 14.2517 17.8712 9.90314 18.3351V20.2774C9.90314 20.8282 9.46828 21.2631 8.91746 21.2631C8.36665 21.2631 7.93179 20.8282 7.93179 20.2774ZM8.74352 14.3634C6.30833 14.3924 4.33698 12.421 4.33698 10.0148V5.31837C4.33698 2.88317 6.33732 0.940812 8.74352 0.969803H9.09141C11.0628 0.969803 12.8022 2.24538 13.353 4.15875C13.411 4.36168 13.295 4.5936 13.0921 4.65159C13.0631 4.65159 13.0341 4.68058 12.9761 4.68058H11.8165C11.4686 4.68058 11.1787 4.97048 11.1787 5.28937C11.1787 5.63726 11.4686 5.89817 11.8165 5.89817H12.8892C13.237 5.89817 13.5269 6.18808 13.5269 6.53596C13.5269 6.88385 13.237 7.17375 12.8892 7.17375H11.8165C11.4686 7.17375 11.2077 7.46366 11.2077 7.78255C11.2077 8.13043 11.4976 8.39135 11.8165 8.39135H12.8892C13.237 8.39135 13.5269 8.68125 13.5269 9.02914C13.5269 9.37702 13.237 9.66693 12.8892 9.66693H11.8165C11.4686 9.66693 11.2077 9.95683 11.2077 10.2757C11.2077 10.6236 11.4976 10.8845 11.8165 10.8845H12.9181C13.1211 10.8845 13.324 11.0585 13.324 11.2614C13.324 11.2904 13.324 11.3484 13.295 11.3774C12.6862 13.1748 11.0048 14.3634 9.09141 14.3634H8.74352Z" fill="#23272B"/>
</svg>
