<svg width="21" height="22" viewBox="0 0 21 22" fill="none" xmlns="http://www.w3.org/2000/svg">
<g clip-path="url(#clip0)">
<path d="M10.5752 15.3296C9.60523 15.3296 8.81616 16.1161 8.81616 17.0823C8.81616 18.0489 9.60523 18.8357 10.5752 18.8357C11.5454 18.8357 12.3345 18.0489 12.3345 17.0823C12.3345 16.1161 11.5453 15.3296 10.5752 15.3296Z" fill="#23272B"/>
<path d="M14.867 12.9414C13.7218 11.7969 12.1975 11.1663 10.5753 11.1663C8.95942 11.1663 7.43923 11.7927 6.29436 12.9301C5.83196 13.3902 5.83116 14.1399 6.29244 14.6009C6.51652 14.8253 6.81486 14.9485 7.1324 14.9485C7.44851 14.9485 7.74573 14.8259 7.96949 14.6034C8.6662 13.911 9.59164 13.5296 10.5753 13.5296C11.5627 13.5296 12.4907 13.9134 13.1879 14.61C13.412 14.8337 13.7102 14.9573 14.0274 14.9573C14.3438 14.9573 14.6409 14.8347 14.8648 14.6122C15.3278 14.152 15.3286 13.4027 14.867 12.9414Z" fill="#23272B"/>
<path d="M20.3801 7.44662C17.7619 4.8349 14.2796 3.39697 10.5753 3.39697C6.876 3.39697 3.39722 4.83154 0.779859 7.43706C0.317462 7.89721 0.317142 8.6469 0.779218 9.10786C1.00313 9.33114 1.30099 9.4539 1.6179 9.4539C1.93465 9.4539 2.23219 9.33162 2.4561 9.1085C4.62564 6.94905 7.50901 5.75953 10.5753 5.75953C13.6461 5.75953 16.5324 6.95145 18.7024 9.11666C18.9263 9.3401 19.2246 9.46334 19.5414 9.46334C19.858 9.46334 20.1555 9.34042 20.3793 9.11762C20.8418 8.65711 20.8423 7.90714 20.3801 7.44662Z" fill="#23272B"/>
<path d="M17.5538 10.2629C15.6901 8.40351 13.2118 7.37964 10.5754 7.37964C7.94381 7.37964 5.46922 8.40031 3.60715 10.2531C3.38292 10.4761 3.25951 10.7726 3.25903 11.0884C3.25903 11.4039 3.38195 11.7008 3.60587 11.9241C3.82979 12.1475 4.12781 12.2707 4.44471 12.2707C4.76114 12.2707 5.05868 12.1478 5.28292 11.9253C6.69747 10.518 8.57715 9.74268 10.5754 9.74268C12.5779 9.74268 14.4601 10.5207 15.8756 11.9329C16.0998 12.1566 16.3977 12.2799 16.7148 12.2799C17.0314 12.2799 17.3291 12.1569 17.5527 11.9341C17.7766 11.7112 17.9003 11.4146 17.9005 11.0988C17.9008 10.783 17.7775 10.4865 17.5538 10.2629Z" fill="#23272B"/>
</g>
<defs>
<clipPath id="clip0">
<rect width="20.2936" height="20.2936" fill="white" transform="translate(0.432861 0.969482)"/>
</clipPath>
</defs>
</svg>
